HIERARCHY
ROOT Hips
{
	OFFSET -0.001795 -0.223333 0.028219
	CHANNELS 6 Xposition Yposition Zposition Zrotation Yrotation Xrotation 
	JOINT LeftUpLeg
	{
		OFFSET 0.069520 -0.091406 -0.006815
		CHANNELS 3 Zrotation Yrotation Xrotation
		JOINT LeftLeg
		{
			OFFSET 0.034277 -0.375199 -0.004496
			CHANNELS 3 Zrotation Yrotation Xrotation
			JOINT LeftFoot
			{
				OFFSET -0.013596 -0.397961 -0.043693
				CHANNELS 3 Zrotation Yrotation Xrotation
				JOINT LeftToe
				{
					OFFSET 0.026358 -0.055791 0.119288
					CHANNELS 3 Zrotation Yrotation Xrotation
					End Site
					{
						OFFSET 0.000000 0.000000 0.000000
					}
				}
			}
		}
	}
	JOINT RightUpLeg
	{
		OFFSET -0.067670 -0.090522 -0.004320
		CHANNELS 3 Zrotation Yrotation Xrotation
		JOINT RightLeg
		{
			OFFSET -0.038290 -0.382569 -0.008850
			CHANNELS 3 Zrotation Yrotation Xrotation
			JOINT RightFoot
			{
				OFFSET 0.015774 -0.398415 -0.042312
				CHANNELS 3 Zrotation Yrotation Xrotation
				JOINT RightToe
				{
					OFFSET -0.025372 -0.048144 0.123348
					CHANNELS 3 Zrotation Yrotation Xrotation
					End Site
					{
						OFFSET 0.000000 0.000000 0.000000
					}
				}
			}
		}
	}
	JOINT Spine
	{
		OFFSET -0.002533 0.108963 -0.026696
		CHANNELS 3 Zrotation Yrotation Xrotation
		JOINT Spine1
		{
			OFFSET 0.005487 0.135180 0.001092
			CHANNELS 3 Zrotation Yrotation Xrotation
			JOINT Spine2
			{
				OFFSET 0.001457 0.052922 0.025425
				CHANNELS 3 Zrotation Yrotation Xrotation
				JOINT Neck
				{
					OFFSET -0.002778 0.213870 -0.042857
					CHANNELS 3 Zrotation Yrotation Xrotation
					JOINT Head
					{
						OFFSET 0.005152 0.064970 0.051349
						CHANNELS 3 Zrotation Yrotation Xrotation
						End Site
						{
							OFFSET 0.000000 0.000000 0.000000
						}
					}
				}
				JOINT LeftShoulder
				{
					OFFSET 0.078845 0.121749 -0.034090
					CHANNELS 3 Zrotation Yrotation Xrotation
					JOINT LeftArm
					{
						OFFSET 0.090977 0.030469 -0.008868
						CHANNELS 3 Zrotation Yrotation Xrotation
						JOINT LeftForeArm
						{
							OFFSET 0.259612 -0.012772 -0.027456
							CHANNELS 3 Zrotation Yrotation Xrotation
							JOINT LeftHand
							{
								OFFSET 0.249234 0.008986 -0.001171
								CHANNELS 3 Zrotation Yrotation Xrotation
								End Site
								{
									OFFSET 0.000000 0.000000 0.000000
								}
							}
						}
					}
				}
				JOINT RightShoulder
				{
					OFFSET -0.081759 0.118833 -0.038615
					CHANNELS 3 Zrotation Yrotation Xrotation
					JOINT RightArm
					{
						OFFSET -0.096012 0.032551 -0.009143
						CHANNELS 3 Zrotation Yrotation Xrotation
						JOINT RightForeArm
						{
							OFFSET -0.253742 -0.013329 -0.021401
							CHANNELS 3 Zrotation Yrotation Xrotation
							JOINT RightHand
							{
								OFFSET -0.255298 0.007772 -0.005559
								CHANNELS 3 Zrotation Yrotation Xrotation
								End Site
								{
									OFFSET 0.000000 0.000000 0.000000
								}
							}
						}
					}
				}
			}
		}
	}
}
MOTION
Frames: 16
Frame Time: 0.050000
0.077191 0.935058 0.060385 0.252082 -5.010038 6.851534 3.445801 -0.891929 -14.850009 -5.566289 0.980743 12.412935 3.008872 7.624733 5.219479 0.000000 0.000000 0.000000 -6.704917 0.883338 -12.195228 -7.044347 1.700670 9.269924 8.520158 17.350892 5.000341 0.000000 0.000000 0.000000 6.192030 -0.444378 2.782854 -0.301534 0.159395 -0.925347 -8.935292 7.852092 7.401323 15.155837 -9.264340 -10.565185 0.000000 0.000000 0.000000 -10.900866 -4.451258 0.036147 -33.743478 -2.058432 -3.258751 -106.968956 -52.253325 67.407043 0.000000 0.000000 0.000000 6.414349 -8.629775 -3.691120 40.038476 -12.110675 -7.396269 129.355527 34.295155 73.561207 0.000000 0.000000 0.000000 
0.094823 0.937267 0.061509 0.257114 -4.763402 7.625171 2.603871 -1.018815 -15.264716 -6.095129 1.060196 11.479237 2.806885 7.363178 5.677834 0.000000 0.000000 0.000000 -7.455823 0.922701 -13.789900 -7.629790 1.966142 10.600231 8.898377 16.519512 6.857123 0.000000 0.000000 0.000000 5.872279 -0.513241 3.552348 0.073914 0.002564 -2.085117 -8.775405 8.507117 8.347939 15.940031 -9.544422 -11.495181 0.000000 0.000000 0.000000 -9.044717 -4.281403 0.139760 -33.562659 -1.815432 -3.360079 -114.717301 -51.683546 74.217276 0.000000 0.000000 0.000000 6.391775 -8.054960 -3.401111 41.823763 -10.492768 -7.299973 133.392532 36.743203 84.260965 0.000000 0.000000 0.000000 
0.107981 0.940605 0.061225 0.204627 -4.600346 8.668208 1.694756 -1.135155 -15.364157 -5.859819 0.932781 9.415309 2.553487 7.118793 6.618849 0.000000 0.000000 0.000000 -7.222452 1.052588 -15.925392 -6.539780 1.847997 11.512395 6.235040 8.104324 9.932749 0.000000 0.000000 0.000000 5.609253 -0.566104 4.091949 0.519436 -0.206497 -1.261470 -8.641530 8.385532 7.331175 15.650105 -9.144649 -11.857127 0.000000 0.000000 0.000000 -6.630150 -5.016491 0.740770 -34.379015 -1.673678 -3.468480 -122.092440 -51.707273 82.476030 0.000000 0.000000 0.000000 6.420298 -6.712361 -2.832224 43.222540 -7.469216 -6.511024 136.137706 41.201669 95.910837 0.000000 0.000000 0.000000 
0.117277 0.942844 0.059932 0.428631 -4.317975 9.725776 0.881859 -1.225084 -15.266932 -5.842562 0.845914 6.861957 2.203211 6.722143 7.553480 0.000000 0.000000 0.000000 -7.209917 1.095435 -16.629632 -3.624145 1.029754 8.849264 0.443193 -5.534551 14.182568 0.000000 0.000000 0.000000 5.058251 -0.592283 4.638950 1.144333 -0.461223 -2.192008 -8.812369 9.073185 7.718161 16.453490 -9.348067 -12.875816 0.000000 0.000000 0.000000 -4.902659 -7.465647 1.822227 -33.801082 -4.525471 -2.735247 -128.982343 -55.010598 94.880526 0.000000 0.000000 0.000000 6.314585 -3.896700 -1.549817 45.859999 -2.365805 -5.168744 135.780004 50.097681 109.083187 0.000000 0.000000 0.000000 
0.123123 0.944928 0.056752 0.814810 -3.422191 10.304343 0.266417 -1.319475 -15.450840 -5.993804 0.813972 5.476757 1.557165 5.904619 8.567748 0.000000 0.000000 0.000000 -7.159825 1.082012 -16.729207 -0.646643 0.354583 6.040337 -7.133738 -18.992038 18.559033 0.000000 0.000000 0.000000 4.543144 -0.614627 5.298755 1.502608 -0.627367 -1.720298 -9.258663 9.806945 6.413262 17.979604 -10.088351 -13.362542 0.000000 0.000000 0.000000 -3.527127 -11.495270 3.310506 -32.662797 -11.389043 -0.916979 -134.983033 -63.006434 111.138420 0.000000 0.000000 0.000000 6.277884 0.481934 0.462674 47.434109 4.883662 -2.556771 131.584547 65.089185 121.031089 0.000000 0.000000 0.000000 
0.126508 0.945667 0.052110 1.108722 -2.629561 10.631594 -0.483046 -1.406123 -15.409253 -5.505264 0.689975 4.138148 1.052727 5.240695 9.091288 0.000000 0.000000 0.000000 -6.781056 1.096928 -16.788193 0.100680 0.182643 4.725092 -11.318180 -25.103406 20.197821 0.000000 0.000000 0.000000 4.346363 -0.680488 6.272228 1.816698 -0.773146 -1.457300 -10.172298 10.516646 5.541762 19.425452 -10.838065 -13.737781 0.000000 0.000000 0.000000 -3.200486 -16.923094 5.159878 -29.589150 -22.096414 1.405748 -146.445358 -78.367150 138.468384 0.000000 0.000000 0.000000 5.908368 7.296265 3.570089 47.199830 14.464378 1.168405 69.051075 85.909480 74.877044 0.000000 0.000000 0.000000 
0.128248 0.946790 0.046027 1.409755 -1.628909 10.431130 -0.640647 -1.538258 -16.496603 -5.824164 0.749168 5.593703 0.532093 4.605128 9.647601 0.000000 0.000000 0.000000 -6.457155 1.080594 -16.604756 -1.170760 0.343810 4.456151 -11.749927 -25.509819 21.244087 0.000000 0.000000 0.000000 4.023304 -0.753955 7.666782 2.142383 -0.938293 -0.977272 -11.165390 11.509652 4.154340 20.570880 -11.620722 -13.350421 0.000000 0.000000 0.000000 -2.548341 -24.514157 7.707424 -26.415137 -34.239516 3.231700 40.535636 -78.021352 -34.221234 0.000000 0.000000 0.000000 5.484859 14.257266 6.817698 42.116454 26.998746 5.405036 -25.227904 62.772798 -9.375994 0.000000 0.000000 0.000000 
0.129067 0.947402 0.040844 1.364157 -0.516044 10.631833 -0.451052 -1.635624 -17.564296 -5.997795 0.769183 6.384084 -0.000089 3.922219 10.015105 0.000000 0.000000 0.000000 -6.083384 1.085812 -16.661800 -1.789573 0.402851 3.988303 -12.301589 -26.052044 22.260257 0.000000 0.000000 0.000000 4.928601 -0.972798 8.944499 1.645183 -0.714701 -0.971010 -11.877968 11.620108 3.391161 22.008358 -11.696854 -15.455143 0.000000 0.000000 0.000000 -2.411517 -30.509217 9.792564 -22.804414 -43.378364 3.645835 33.400119 -58.104125 -19.129059 0.000000 0.000000 0.000000 4.186803 20.380015 9.399455 34.824510 37.602906 7.548460 -22.908633 38.140878 -4.977489 0.000000 0.000000 0.000000 
0.129296 0.947812 0.037218 1.585526 0.017911 11.173970 -0.374107 -1.790975 -19.194024 -6.424848 0.856360 7.677968 -0.264003 3.702625 10.527800 0.000000 0.000000 0.000000 -6.060481 1.087416 -16.874955 -2.320847 0.422348 3.106979 -12.571479 -26.288012 22.940346 0.000000 0.000000 0.000000 5.205476 -1.087478 9.702115 1.698198 -0.761010 -0.436902 -12.300865 11.528159 2.877758 22.846454 -12.560219 -14.633338 0.000000 0.000000 0.000000 -1.489609 -34.820533 11.283867 -18.223313 -48.722241 2.593225 30.013304 -43.349738 -11.866891 0.000000 0.000000 0.000000 1.906626 23.916583 10.382230 29.048035 43.908292 7.918514 -19.609648 25.913137 -2.777611 0.000000 0.000000 0.000000 
0.128772 0.948078 0.035731 1.421829 0.219606 11.718503 0.423169 -1.790338 -20.329486 -7.332172 1.029601 8.347676 -0.361434 3.681498 10.904849 0.000000 0.000000 0.000000 -5.854196 1.117152 -17.027335 -2.349119 0.371987 2.207630 -12.661799 -26.348266 23.341163 0.000000 0.000000 0.000000 5.638430 -1.240818 10.584367 1.466076 -0.645873 -0.634286 -12.352754 10.902211 2.321110 23.615677 -12.990561 -14.785185 0.000000 0.000000 0.000000 -0.940589 -37.515798 12.290407 -16.171059 -50.861534 2.016001 26.678919 -35.623872 -8.167040 0.000000 0.000000 0.000000 0.775693 26.171158 11.004983 25.999656 46.639815 7.658951 -17.546849 20.374718 -1.880090 0.000000 0.000000 0.000000 
0.127482 0.948686 0.035180 1.295156 -0.102967 11.924203 0.827292 -1.746915 -20.613553 -7.628508 1.093438 8.370976 -0.247163 3.932469 11.194578 0.000000 0.000000 0.000000 -5.466853 1.153539 -16.701135 -2.674715 0.335210 1.023724 -12.394368 -26.005122 23.493775 0.000000 0.000000 0.000000 5.358985 -1.306121 11.731909 1.575122 -0.685527 -0.814852 -12.105437 10.527774 2.423402 24.027836 -13.440526 -14.468143 0.000000 0.000000 0.000000 -0.629514 -38.196624 12.586976 -16.885780 -51.713475 2.381376 25.383665 -33.613812 -7.132040 0.000000 0.000000 0.000000 0.263870 26.847545 11.088305 25.813988 47.921208 7.925453 -17.638251 20.123216 -1.882238 0.000000 0.000000 0.000000 
0.125487 0.949186 0.034539 1.131515 -0.760363 12.503124 1.319907 -1.653804 -20.602741 -7.946611 1.125661 7.200389 -0.008437 4.361984 11.540204 0.000000 0.000000 0.000000 -4.915904 1.248762 -16.998387 -3.191181 0.325063 0.095022 -11.946307 -25.485839 23.546719 0.000000 0.000000 0.000000 4.641314 -1.243796 12.299294 2.059905 -0.904196 -0.709192 -12.012759 10.197210 2.722625 23.836473 -13.217579 -14.743095 0.000000 0.000000 0.000000 -0.671391 -39.035043 13.011829 -16.263322 -51.642071 2.186453 23.650094 -31.534061 -6.022388 0.000000 0.000000 0.000000 0.000730 27.958592 11.430682 24.226354 49.145946 7.539375 -17.402597 19.482429 -1.803784 0.000000 0.000000 0.000000 
0.123171 0.949660 0.032994 0.876419 -1.627913 12.753882 2.096983 -1.526450 -20.813057 -8.558843 1.249225 6.946707 0.364012 4.983428 11.906419 0.000000 0.000000 0.000000 -4.261640 1.373815 -17.544972 -3.654574 0.365559 0.086108 -11.380625 -24.861508 23.350494 0.000000 0.000000 0.000000 4.109521 -1.242388 13.531848 1.960017 -0.843531 -0.991375 -11.671608 10.114438 3.140548 24.601148 -13.408535 -15.684658 0.000000 0.000000 0.000000 0.412117 -39.778682 13.168948 -15.673506 -51.461135 1.911796 22.433782 -29.120983 -5.117871 0.000000 0.000000 0.000000 -0.413327 28.326846 11.404952 23.416566 50.905158 7.590333 -18.567775 17.732872 -1.756768 0.000000 0.000000 0.000000 
0.121139 0.950047 0.030680 0.610585 -2.965310 12.895049 2.572309 -1.415555 -20.983492 -8.696062 1.312365 6.844796 0.981529 5.916517 12.181478 0.000000 0.000000 0.000000 -3.456208 1.517193 -17.918582 -4.394785 0.404105 -0.243684 -10.503451 -23.874921 23.056090 0.000000 0.000000 0.000000 3.487626 -1.175611 14.470135 2.554141 -1.108380 -0.888682 -11.901105 10.338822 3.159775 24.770111 -13.444375 -15.917073 0.000000 0.000000 0.000000 1.387063 -40.581716 13.305498 -12.915938 -51.684198 0.802110 20.063671 -24.615862 -3.672954 0.000000 0.000000 0.000000 -1.136647 30.056258 11.873124 18.136038 51.951851 5.542805 -18.278461 13.986698 -1.297357 0.000000 0.000000 0.000000 
0.119835 0.950095 0.028290 0.441512 -4.465989 13.320036 3.111786 -1.290769 -21.307939 -9.190725 1.430246 6.469431 1.662385 6.938846 12.563721 0.000000 0.000000 0.000000 -3.215438 1.670337 -18.944699 -4.438772 0.416549 -0.008285 -9.649125 -22.947948 22.602169 0.000000 0.000000 0.000000 2.809379 -1.076691 15.361802 2.419696 -1.056777 -0.476632 -11.830222 10.574513 3.022253 25.294664 -13.572897 -16.453523 0.000000 0.000000 0.000000 4.316730 -42.728973 13.428206 -8.400987 -51.815354 -1.089493 18.870504 -18.400400 -2.446068 0.000000 0.000000 0.000000 -3.961444 30.750023 11.234606 13.311177 53.375705 3.802754 -17.225882 9.534429 -0.706690 0.000000 0.000000 0.000000 
0.119396 0.949712 0.026628 0.062378 -6.029728 13.679779 3.662430 -1.142911 -21.490424 -9.444399 1.510558 6.145552 2.432305 8.021172 12.670901 0.000000 0.000000 0.000000 -2.658684 1.841631 -19.652453 -4.707594 0.424118 -0.092433 -8.721977 -21.910727 22.152068 0.000000 0.000000 0.000000 2.596951 -1.045893 16.207281 2.206488 -0.956972 -0.330191 -11.602849 10.340144 2.960400 25.255706 -13.944298 -15.552553 0.000000 0.000000 0.000000 6.611752 -43.764637 13.262312 -4.815189 -52.041605 -2.511848 17.989176 -12.607243 -1.511641 0.000000 0.000000 0.000000 -6.003227 32.282284 11.112007 7.011922 53.381907 1.005982 -15.542000 5.698362 -0.237364 0.000000 0.000000 0.000000 
